<?xml version="1.0" encoding="UTF-8" standalone="no"?>
<!-- Created with Inkscape (http://www.inkscape.org/) -->

<svg
   xmlns:dc="http://purl.org/dc/elements/1.1/"
   xmlns:cc="http://creativecommons.org/ns#"
   xmlns:rdf="http://www.w3.org/1999/02/22-rdf-syntax-ns#"
   xmlns:svg="http://www.w3.org/2000/svg"
   xmlns="http://www.w3.org/2000/svg"
   xmlns:xlink="http://www.w3.org/1999/xlink"
   xmlns:sodipodi="http://sodipodi.sourceforge.net/DTD/sodipodi-0.dtd"
   xmlns:inkscape="http://www.inkscape.org/namespaces/inkscape"
   width="117.39097mm"
   height="58.05312mm"
   viewBox="0 0 415.95225 205.70003"
   id="svg2"
   version="1.1"
   inkscape:version="0.91 r13725"
   sodipodi:docname="kazesawa.svg">
  <defs
     id="defs4">
    <linearGradient
       id="linearGradient4160"
       inkscape:collect="always">
      <stop
         id="stop4162"
         offset="0"
         style="stop-color:#1c1d1d;stop-opacity:1" />
      <stop
         id="stop4164"
         offset="1"
         style="stop-color:#2b2b2b;stop-opacity:1" />
    </linearGradient>
    <linearGradient
       inkscape:collect="always"
       id="linearGradient4138">
      <stop
         style="stop-color:#144782;stop-opacity:1;"
         offset="0"
         id="stop4140" />
      <stop
         style="stop-color:#5298e0;stop-opacity:1"
         offset="1"
         id="stop4142" />
    </linearGradient>
    <linearGradient
       inkscape:collect="always"
       xlink:href="#linearGradient4138"
       id="linearGradient4144"
       x1="48.327599"
       y1="36.989468"
       x2="105.33173"
       y2="224.87784"
       gradientUnits="userSpaceOnUse"
       gradientTransform="matrix(1.1406875,0,0,1.1406875,-1.2057013,7.6937841)" />
    <linearGradient
       inkscape:collect="always"
       xlink:href="#linearGradient4160"
       id="linearGradient4152"
       x1="322.28812"
       y1="103.58264"
       x2="86.899033"
       y2="94.296936"
       gradientUnits="userSpaceOnUse"
       gradientTransform="translate(1.0101525,4.0406102)" />
    <linearGradient
       inkscape:collect="always"
       xlink:href="#linearGradient4160"
       id="linearGradient4195"
       gradientUnits="userSpaceOnUse"
       gradientTransform="matrix(1.1406875,0,0,1.1406875,-0.05343304,12.302857)"
       x1="322.28812"
       y1="103.58264"
       x2="86.899033"
       y2="94.296936" />
  </defs>
  <sodipodi:namedview
     id="base"
     pagecolor="#ffffff"
     bordercolor="#666666"
     borderopacity="1.0"
     inkscape:pageopacity="0.0"
     inkscape:pageshadow="2"
     inkscape:zoom="1"
     inkscape:cx="89.15631"
     inkscape:cy="89.080738"
     inkscape:document-units="px"
     inkscape:current-layer="layer1"
     showgrid="false"
     inkscape:window-width="1366"
     inkscape:window-height="711"
     inkscape:window-x="0"
     inkscape:window-y="31"
     inkscape:window-maximized="1"
     fit-margin-top="5"
     fit-margin-left="5"
     fit-margin-right="5"
     fit-margin-bottom="5" />
  <metadata
     id="metadata7">
    <rdf:RDF>
      <cc:Work
         rdf:about="">
        <dc:format>image/svg+xml</dc:format>
        <dc:type
           rdf:resource="http://purl.org/dc/dcmitype/StillImage" />
        <dc:title />
      </cc:Work>
    </rdf:RDF>
  </metadata>
  <g
     inkscape:label="レイヤー 1"
     inkscape:groupmode="layer"
     id="layer1"
     transform="translate(0.95620343,-1.3088296)">
    <path
       style="fill:url(#linearGradient4144);fill-opacity:1;fill-rule:evenodd;stroke:none;stroke-width:1px;stroke-linecap:butt;stroke-linejoin:miter;stroke-opacity:1"
       d="M 90.497635,19.025365 C 174.93807,56.519538 141.69727,157.22776 66.869105,67.504585 55.623064,71.50169 32.006346,93.886533 16.760332,98.873492 98.006764,179.71198 144.32812,103.1582 90.497635,19.025365 Z"
       id="path3338"
       inkscape:connector-curvature="0"
       sodipodi:nodetypes="cccc" />
    <g
       style="font-style:normal;font-weight:normal;font-size:45.62750244px;line-height:125%;font-family:sans-serif;letter-spacing:0px;word-spacing:0px;fill:url(#linearGradient4195);fill-opacity:1;stroke:none;stroke-width:1px;stroke-linecap:butt;stroke-linejoin:miter;stroke-opacity:1"
       id="text4140">
      <path
         d="m 122.32876,156.37724 0,-41.19149 10.8999,0 0,15.33591 0.25349,0 10.39293,-15.33591 11.91385,0 -12.29408,16.73008 14.70219,24.46141 -11.91384,0 -9.1255,-15.84288 -3.92904,5.57669 0,10.26619 -10.8999,0 z"
         style="font-style:normal;font-variant:normal;font-weight:800;font-stretch:normal;font-size:57.03437805px;font-family:Kazesawa;-inkscape-font-specification:'Kazesawa Ultra-Bold';fill:url(#linearGradient4195);fill-opacity:1"
         id="path4197" />
      <path
         d="m 169.44797,157.1377 q -4.30927,0 -6.9075,-2.85172 -2.59823,-2.85172 -2.59823,-6.90749 0,-5.00636 4.05577,-7.7947 4.11915,-2.78835 13.18128,-3.73892 -0.38023,-3.29532 -4.436,-3.29532 -3.04184,0 -7.98482,2.6616 l -3.80229,-7.09761 q 6.97087,-4.18252 13.94174,-4.18252 13.18128,0 13.18128,14.82894 l 0,17.61728 -8.87202,0 -0.76046,-3.04183 -0.25348,0 q -4.24589,3.80229 -8.74527,3.80229 z m 3.80229,-8.36504 q 1.96452,0 3.92903,-2.15463 l 0,-4.30927 q -6.84412,1.01395 -6.84412,4.18252 0,2.28138 2.91509,2.28138 z"
         style="font-style:normal;font-variant:normal;font-weight:800;font-stretch:normal;font-size:57.03437805px;font-family:Kazesawa;-inkscape-font-specification:'Kazesawa Ultra-Bold';fill:url(#linearGradient4195);fill-opacity:1"
         id="path4199" />
      <path
         d="m 194.04454,156.37724 0,-5.83018 12.04059,-17.3638 -10.64642,0 0,-8.49178 24.20792,0 0,5.83018 -12.04059,17.3638 12.42082,0 0,8.49178 -25.98232,0 z"
         style="font-style:normal;font-variant:normal;font-weight:800;font-stretch:normal;font-size:57.03437805px;font-family:Kazesawa;-inkscape-font-specification:'Kazesawa Ultra-Bold';fill:url(#linearGradient4195);fill-opacity:1"
         id="path4201" />
      <path
         d="m 239.29577,157.1377 q -7.16098,0 -11.7871,-4.43601 -4.56275,-4.49937 -4.56275,-12.16733 0,-7.41447 4.56275,-11.97722 4.56275,-4.62612 10.64642,-4.62612 6.71738,0 10.26618,4.30926 3.54881,4.30927 3.54881,11.02665 0,2.78835 -0.4436,4.56275 l -18.06089,0 q 1.33081,5.06972 7.3511,5.06972 3.04183,0 6.4639,-1.90114 l 3.5488,6.46389 q -5.19646,3.67555 -11.53362,3.67555 z m -5.95692,-20.40563 9.37899,0 q 0,-4.56275 -4.30927,-4.56275 -1.90114,0 -3.29532,1.14069 -1.3308,1.14068 -1.7744,3.42206 z"
         style="font-style:normal;font-variant:normal;font-weight:800;font-stretch:normal;font-size:57.03437805px;font-family:Kazesawa;-inkscape-font-specification:'Kazesawa Ultra-Bold';fill:url(#linearGradient4195);fill-opacity:1"
         id="path4203" />
      <path
         d="m 267.65997,157.1377 q -3.04183,0 -6.4639,-1.20406 -3.35869,-1.26743 -5.83018,-3.23195 l 4.81624,-6.71738 q 4.30926,3.16858 7.73133,3.16858 3.16857,0 3.16857,-1.90115 0,-0.4436 -0.31686,-0.82383 -0.25348,-0.4436 -1.01394,-0.82383 -0.69709,-0.4436 -1.20406,-0.63371 -0.4436,-0.25349 -1.7744,-0.69709 -1.26743,-0.50697 -1.77441,-0.69709 -7.98481,-3.16857 -7.98481,-9.37898 0,-4.62612 3.42206,-7.41447 3.48544,-2.85172 9.12551,-2.85172 6.08366,0 11.66036,4.18252 l -4.81624,6.4639 q -3.67555,-2.66161 -6.4639,-2.66161 -2.78834,0 -2.78834,1.7744 0,0.31686 0.12674,0.63372 0.19011,0.31686 0.50697,0.57034 0.38023,0.25349 0.69709,0.50698 0.31686,0.19011 0.95057,0.4436 0.63372,0.19011 1.07732,0.38023 0.4436,0.12674 1.26743,0.4436 0.82383,0.25348 1.3308,0.4436 8.11156,2.97846 8.11156,9.50573 0,4.62612 -3.54881,7.60458 -3.5488,2.91509 -10.0127,2.91509 z"
         style="font-style:normal;font-variant:normal;font-weight:800;font-stretch:normal;font-size:57.03437805px;font-family:Kazesawa;-inkscape-font-specification:'Kazesawa Ultra-Bold';fill:url(#linearGradient4195);fill-opacity:1"
         id="path4205" />
      <path
         d="m 294.76764,157.1377 q -4.30927,0 -6.9075,-2.85172 -2.59823,-2.85172 -2.59823,-6.90749 0,-5.00636 4.05578,-7.7947 4.11915,-2.78835 13.18127,-3.73892 -0.38022,-3.29532 -4.436,-3.29532 -3.04184,0 -7.98482,2.6616 l -3.80229,-7.09761 q 6.97087,-4.18252 13.94174,-4.18252 13.18128,0 13.18128,14.82894 l 0,17.61728 -8.87202,0 -0.76045,-3.04183 -0.25349,0 q -4.24589,3.80229 -8.74527,3.80229 z m 3.80229,-8.36504 q 1.96452,0 3.92903,-2.15463 l 0,-4.30927 q -6.84412,1.01395 -6.84412,4.18252 0,2.28138 2.91509,2.28138 z"
         style="font-style:normal;font-variant:normal;font-weight:800;font-stretch:normal;font-size:57.03437805px;font-family:Kazesawa;-inkscape-font-specification:'Kazesawa Ultra-Bold';fill:url(#linearGradient4195);fill-opacity:1"
         id="path4207" />
      <path
         d="m 325.95485,156.37724 -7.60459,-31.68576 10.77316,0 2.40812,13.30802 q 0.25349,1.64766 0.63372,4.87961 0.38023,3.16857 0.63371,4.75286 l 0.25349,0 q 1.01394,-6.59064 1.7744,-9.63247 l 2.91509,-13.30802 9.25224,0 3.04184,13.30802 q 0.25348,1.01394 1.90114,9.63247 l 0.25349,0 q 0.25349,-1.58429 0.63372,-4.75286 0.38022,-3.23195 0.63371,-4.87961 l 2.40812,-13.30802 10.0127,0 -7.22435,31.68576 -12.67431,0 -2.28138,-11.02664 q -1.01394,-5.83018 -1.52091,-9.31562 l -0.25349,0 q -1.14069,7.92144 -1.39417,9.31562 l -2.15463,11.02664 -12.42082,0 z"
         style="font-style:normal;font-variant:normal;font-weight:800;font-stretch:normal;font-size:57.03437805px;font-family:Kazesawa;-inkscape-font-specification:'Kazesawa Ultra-Bold';fill:url(#linearGradient4195);fill-opacity:1"
         id="path4209" />
      <path
         d="m 378.64828,157.1377 q -4.30926,0 -6.90749,-2.85172 -2.59824,-2.85172 -2.59824,-6.90749 0,-5.00636 4.05578,-7.7947 4.11915,-2.78835 13.18128,-3.73892 -0.38023,-3.29532 -4.43601,-3.29532 -3.04183,0 -7.98481,2.6616 l -3.80229,-7.09761 q 6.97087,-4.18252 13.94174,-4.18252 13.18127,0 13.18127,14.82894 l 0,17.61728 -8.87201,0 -0.76046,-3.04183 -0.25348,0 q -4.2459,3.80229 -8.74528,3.80229 z m 3.8023,-8.36504 q 1.96451,0 3.92903,-2.15463 l 0,-4.30927 q -6.84412,1.01395 -6.84412,4.18252 0,2.28138 2.91509,2.28138 z"
         style="font-style:normal;font-variant:normal;font-weight:800;font-stretch:normal;font-size:57.03437805px;font-family:Kazesawa;-inkscape-font-specification:'Kazesawa Ultra-Bold';fill:url(#linearGradient4195);fill-opacity:1"
         id="path4211" />
    </g>
    <g
       style="font-style:normal;font-weight:normal;font-size:14.94886494px;line-height:125%;font-family:sans-serif;letter-spacing:0px;word-spacing:0px;fill:#161616;fill-opacity:1;stroke:none;stroke-width:1px;stroke-linecap:butt;stroke-linejoin:miter;stroke-opacity:1"
       id="text4144">
      <path
         d="m 54.7648,178.60597 -0.03737,0 -2.690795,5.79268 -2.24233,0 -2.690796,-5.79268 -0.03737,0 0,9.21224 -2.466562,0 0,-13.64084 2.578679,0 3.71853,8.03501 0.03737,0 3.71853,-8.03501 2.653424,0 0,13.64084 -2.541307,0 0,-9.21224 z"
         style="font-style:normal;font-variant:normal;font-weight:bold;font-stretch:normal;font-family:'M+ 1c';-inkscape-font-specification:'M+ 1c Bold'"
         id="path4150" />
      <path
         d="m 66.703161,176.98028 0,4.4286 4.409915,0 0,1.98073 -4.409915,0 0,4.4286 -2.130213,0 0,-4.4286 -4.409915,0 0,-1.98073 4.409915,0 0,-4.4286 2.130213,0 z"
         style="font-style:normal;font-variant:normal;font-weight:bold;font-stretch:normal;font-family:'M+ 1c';-inkscape-font-specification:'M+ 1c Bold'"
         id="path4152" />
      <path
         d="m 80.317592,173.32611 0.913542,-0.14533 q 0.519058,3.23892 1.34955,6.35326 2.989773,-1.4326 8.014253,-2.57452 l 0.186861,0.83049 q -11.647657,2.71986 -11.647657,6.58165 0,3.28045 6.145644,3.25969 2.491477,0 5.5643,-0.41525 l 0.08305,0.85125 q -3.093585,0.41525 -5.647349,0.41525 -3.446544,0 -5.252865,-1.03811 -1.806321,-1.05888 -1.806321,-3.05206 0,-2.51224 3.529593,-4.42238 -0.89278,-3.3012 -1.4326,-6.64394 z"
         style="font-style:normal;font-variant:normal;font-weight:200;font-stretch:normal;font-size:18.68608093px;font-family:Kazesawa;-inkscape-font-specification:'Kazesawa Ultra-Light';fill:#161616;fill-opacity:1"
         id="path4154" />
      <path
         d="m 102.39005,188.06901 c 3.07234,0 4.91156,-1.83922 4.91156,-4.05465 0,-1.98553 -1.14951,-3.00964 -2.75884,-3.69935 l -1.86012,-0.77331 c -1.12861,-0.45981 -2.17363,-0.85691 -2.17363,-1.92283 0,-1.00321 0.85691,-1.60932 2.15273,-1.60932 1.17042,0 2.09003,0.43891 2.96784,1.17042 l 1.23311,-1.54662 c -1.06591,-1.06592 -2.61253,-1.73472 -4.20095,-1.73472 -2.675235,0 -4.59806,1.67202 -4.59806,3.84565 0,2.00642 1.421219,3.07234 2.75884,3.63664 l 1.88102,0.81511 c 1.23312,0.52251 2.11093,0.87781 2.11093,2.00643 0,1.06591 -0.83601,1.75562 -2.38263,1.75562 -1.25402,0 -2.570736,-0.62701 -3.553049,-1.54662 l -1.421219,1.65112 c 1.295817,1.27492 3.093238,2.00643 4.932468,2.00643 z"
         style="font-style:normal;font-variant:normal;font-weight:600;font-stretch:normal;font-size:20.90027237px;font-family:'Source Sans Pro';-inkscape-font-specification:'Source Sans Pro Semi-Bold'"
         id="path4156" />
      <path
         d="m 113.77906,188.06901 c 2.57074,0 4.89067,-1.96463 4.89067,-5.37137 0,-3.42764 -2.31993,-5.39227 -4.89067,-5.39227 -2.54983,0 -4.86976,1.96463 -4.86976,5.39227 0,3.40674 2.31993,5.37137 4.86976,5.37137 z m 0,-1.96463 c -1.50482,0 -2.40353,-1.35851 -2.40353,-3.40674 0,-2.06913 0.89871,-3.42764 2.40353,-3.42764 1.50482,0 2.42443,1.35851 2.42443,3.42764 0,2.04823 -0.91961,3.40674 -2.42443,3.40674 z"
         style="font-style:normal;font-variant:normal;font-weight:600;font-stretch:normal;font-size:20.90027237px;font-family:'Source Sans Pro';-inkscape-font-specification:'Source Sans Pro Semi-Bold'"
         id="path4158" />
      <path
         d="m 124.1002,188.06901 c 1.40032,0 2.40354,-0.68971 3.30225,-1.75562 l 0.0627,0 0.1881,1.50482 1.96463,0 0,-10.26204 -2.40354,0 0,7.02249 c -0.77331,1.00322 -1.37941,1.42122 -2.27812,1.42122 -1.10772,0 -1.58843,-0.62701 -1.58843,-2.31993 l 0,-6.12378 -2.40353,0 0,6.43729 c 0,2.59163 0.96142,4.07555 3.15594,4.07555 z"
         style="font-style:normal;font-variant:normal;font-weight:600;font-stretch:normal;font-size:20.90027237px;font-family:'Source Sans Pro';-inkscape-font-specification:'Source Sans Pro Semi-Bold'"
         id="path4160" />
      <path
         d="m 132.68271,187.81821 2.40353,0 0,-6.27008 c 0.62701,-1.54663 1.60932,-2.11093 2.42443,-2.11093 0.4389,0 0.71061,0.0627 1.06591,0.1672 l 0.41801,-2.09003 c -0.31351,-0.1463 -0.64791,-0.209 -1.17042,-0.209 -1.08681,0 -2.17363,0.73151 -2.90513,2.06913 l -0.0836,0 -0.1672,-1.81833 -1.98552,0 0,10.26204 z"
         style="font-style:normal;font-variant:normal;font-weight:600;font-stretch:normal;font-size:20.90027237px;font-family:'Source Sans Pro';-inkscape-font-specification:'Source Sans Pro Semi-Bold'"
         id="path4162" />
      <path
         d="m 144.55994,188.06901 c 1.17041,0 2.38263,-0.41801 3.34404,-1.25402 l -0.98231,-1.58842 c -0.58521,0.48071 -1.31672,0.87781 -2.11093,0.87781 -1.60932,0 -2.73794,-1.35851 -2.73794,-3.40674 0,-2.06913 1.14952,-3.42764 2.80064,-3.42764 0.64791,0 1.17042,0.2717 1.71382,0.75241 l 1.17042,-1.56753 c -0.75241,-0.6479 -1.69292,-1.14951 -3.00964,-1.14951 -2.73794,0 -5.14147,1.96463 -5.14147,5.39227 0,3.40674 2.15273,5.37137 4.95337,5.37137 z"
         style="font-style:normal;font-variant:normal;font-weight:600;font-stretch:normal;font-size:20.90027237px;font-family:'Source Sans Pro';-inkscape-font-specification:'Source Sans Pro Semi-Bold'"
         id="path4164" />
      <path
         d="m 153.84913,188.06901 c 1.29582,0 2.52893,-0.45981 3.51125,-1.10771 l -0.81511,-1.50482 c -0.75241,0.4807 -1.50482,0.75241 -2.38264,0.75241 -1.65112,0 -2.82153,-1.04502 -3.03054,-2.86334 l 6.52089,0 c 0.0627,-0.2508 0.1045,-0.71061 0.1045,-1.17042 0,-2.86333 -1.46302,-4.86976 -4.24275,-4.86976 -2.40354,0 -4.72347,2.04823 -4.72347,5.39227 0,3.38584 2.21543,5.37137 5.05787,5.37137 z m -2.73794,-6.35368 c 0.20901,-1.65112 1.25402,-2.54984 2.46624,-2.54984 1.40031,0 2.09002,0.96142 2.09002,2.54984 l -4.55626,0 z"
         style="font-style:normal;font-variant:normal;font-weight:600;font-stretch:normal;font-size:20.90027237px;font-family:'Source Sans Pro';-inkscape-font-specification:'Source Sans Pro Semi-Bold'"
         id="path4166" />
      <path
         d="m 168.43817,188.06901 c 3.07234,0 4.91157,-1.83922 4.91157,-4.05465 0,-1.98553 -1.14952,-3.00964 -2.75884,-3.69935 l -1.86012,-0.77331 c -1.12862,-0.45981 -2.17363,-0.85691 -2.17363,-1.92283 0,-1.00321 0.85691,-1.60932 2.15273,-1.60932 1.17041,0 2.09002,0.43891 2.96784,1.17042 l 1.23311,-1.54662 c -1.06591,-1.06592 -2.61253,-1.73472 -4.20095,-1.73472 -2.67524,0 -4.59806,1.67202 -4.59806,3.84565 0,2.00642 1.42122,3.07234 2.75883,3.63664 l 1.88103,0.81511 c 1.23311,0.52251 2.11092,0.87781 2.11092,2.00643 0,1.06591 -0.83601,1.75562 -2.38263,1.75562 -1.25401,0 -2.57073,-0.62701 -3.55304,-1.54662 l -1.42122,1.65112 c 1.29582,1.27492 3.09324,2.00643 4.93246,2.00643 z"
         style="font-style:normal;font-variant:normal;font-weight:600;font-stretch:normal;font-size:20.90027237px;font-family:'Source Sans Pro';-inkscape-font-specification:'Source Sans Pro Semi-Bold'"
         id="path4168" />
      <path
         d="m 178.11337,188.06901 c 1.21221,0 2.25723,-0.60611 3.17684,-1.37942 l 0.0836,0 0.1672,1.12862 1.98553,0 0,-6.08198 c 0,-2.86334 -1.27492,-4.43086 -3.82475,-4.43086 -1.63022,0 -3.09324,0.62701 -4.22186,1.33762 l 0.87781,1.60932 c 0.91961,-0.54341 1.88103,-1.00321 2.88424,-1.00321 1.40032,0 1.83922,0.91961 1.88102,2.00642 -4.22185,0.45981 -6.04017,1.60932 -6.04017,3.80385 0,1.79742 1.23311,3.00964 3.03054,3.00964 z m 0.77331,-1.88102 c -0.85692,0 -1.48392,-0.39711 -1.48392,-1.31672 0,-1.02411 0.91961,-1.75562 3.72024,-2.11093 l 0,2.29903 c -0.77331,0.71061 -1.40031,1.12862 -2.23632,1.12862 z"
         style="font-style:normal;font-variant:normal;font-weight:600;font-stretch:normal;font-size:20.90027237px;font-family:'Source Sans Pro';-inkscape-font-specification:'Source Sans Pro Semi-Bold'"
         id="path4170" />
      <path
         d="m 186.40294,187.81821 2.40353,0 0,-7.1688 c 0.85691,-0.83601 1.44212,-1.27491 2.34083,-1.27491 1.12861,0 1.60932,0.627 1.60932,2.31993 l 0,6.12378 2.40353,0 0,-6.43729 c 0,-2.59163 -0.96141,-4.07555 -3.15594,-4.07555 -1.40032,0 -2.44533,0.73151 -3.36494,1.63022 l -0.0836,0 -0.1672,-1.37942 -1.98552,0 0,10.26204 z"
         style="font-style:normal;font-variant:normal;font-weight:600;font-stretch:normal;font-size:20.90027237px;font-family:'Source Sans Pro';-inkscape-font-specification:'Source Sans Pro Semi-Bold'"
         id="path4172" />
      <path
         d="m 200.98185,188.06901 c 2.59163,0 3.99195,-1.42122 3.99195,-3.17684 0,-1.92283 -1.54662,-2.59164 -2.94694,-3.11414 -1.10771,-0.39711 -2.13182,-0.71061 -2.13182,-1.52572 0,-0.64791 0.4807,-1.12862 1.50482,-1.12862 0.81511,0 1.54662,0.35531 2.25722,0.87781 l 1.10772,-1.46301 c -0.83601,-0.64791 -1.98553,-1.23312 -3.40675,-1.23312 -2.29903,0 -3.74114,1.27492 -3.74114,3.07234 0,1.71382 1.52572,2.48713 2.88423,2.98874 1.08682,0.418 2.19453,0.79421 2.19453,1.65112 0,0.71061 -0.5225,1.23312 -1.63022,1.23312 -1.04501,0 -1.92282,-0.43891 -2.84244,-1.14952 l -1.12861,1.54662 c 1.00321,0.81511 2.48713,1.42122 3.88745,1.42122 z"
         style="font-style:normal;font-variant:normal;font-weight:600;font-stretch:normal;font-size:20.90027237px;font-family:'Source Sans Pro';-inkscape-font-specification:'Source Sans Pro Semi-Bold'"
         id="path4174" />
      <path
         d="m 211.51265,187.81821 2.42443,0 0,-5.01607 1.96463,0 c 2.94694,0 5.20417,-1.40032 5.20417,-4.43086 0,-3.17684 -2.25723,-4.22185 -5.28777,-4.22185 l -4.30546,0 0,13.66878 z m 2.42443,-6.95979 0,-4.76527 1.69292,0 c 2.02733,0 3.09324,0.56431 3.09324,2.27813 0,1.67203 -0.98231,2.48714 -3.00964,2.48714 l -1.77652,0 z"
         style="font-style:normal;font-variant:normal;font-weight:600;font-stretch:normal;font-size:20.90027237px;font-family:'Source Sans Pro';-inkscape-font-specification:'Source Sans Pro Semi-Bold'"
         id="path4176" />
      <path
         d="m 223.46826,187.81821 2.40353,0 0,-6.27008 c 0.62701,-1.54663 1.60932,-2.11093 2.42443,-2.11093 0.43891,0 0.71061,0.0627 1.06592,0.1672 l 0.418,-2.09003 c -0.3135,-0.1463 -0.64791,-0.209 -1.17041,-0.209 -1.08682,0 -2.17363,0.73151 -2.90514,2.06913 l -0.0836,0 -0.16721,-1.81833 -1.98552,0 0,10.26204 z"
         style="font-style:normal;font-variant:normal;font-weight:600;font-stretch:normal;font-size:20.90027237px;font-family:'Source Sans Pro';-inkscape-font-specification:'Source Sans Pro Semi-Bold'"
         id="path4178" />
      <path
         d="m 235.2619,188.06901 c 2.57073,0 4.89066,-1.96463 4.89066,-5.37137 0,-3.42764 -2.31993,-5.39227 -4.89066,-5.39227 -2.54984,0 -4.86977,1.96463 -4.86977,5.39227 0,3.40674 2.31993,5.37137 4.86977,5.37137 z m 0,-1.96463 c -1.50482,0 -2.40354,-1.35851 -2.40354,-3.40674 0,-2.06913 0.89872,-3.42764 2.40354,-3.42764 1.50482,0 2.42443,1.35851 2.42443,3.42764 0,2.04823 -0.91961,3.40674 -2.42443,3.40674 z"
         style="font-style:normal;font-variant:normal;font-weight:600;font-stretch:normal;font-size:20.90027237px;font-family:'Source Sans Pro';-inkscape-font-specification:'Source Sans Pro Semi-Bold'"
         id="path4180" />
      <path
         d="m 256.44038,187.29915 q 2.32538,-0.22839 3.65417,-1.86861 1.32879,-1.66098 1.32879,-4.33932 0,-2.533 -1.74404,-4.19399 -1.74403,-1.66098 -4.42237,-1.66098 l -0.0831,0 q -1.20421,12.35357 -5.066,12.35357 -1.2665,0 -2.32538,-1.55717 -1.05888,-1.57794 -1.05888,-3.86179 0,-3.44655 2.3669,-5.60583 2.38767,-2.15928 6.16641,-2.15928 3.07282,0 5.04524,1.88937 1.99318,1.88937 1.99318,4.7961 0,3.05206 -1.53641,4.94143 -1.53641,1.86861 -4.17322,2.09699 l -0.14534,-0.83049 z m -2.18004,-12.02138 q -3.01054,0.29067 -4.83762,2.18004 -1.82708,1.86861 -1.82708,4.71305 0,1.93089 0.83049,3.23892 0.80973,1.32879 1.68175,1.32879 0.31143,0 0.64363,-0.1661 0.3322,-0.18686 0.72668,-0.62287 0.39448,-0.45677 0.76821,-1.30803 0.39448,-0.85125 0.74744,-2.05547 0.37372,-1.20421 0.68515,-3.09358 0.3322,-1.88937 0.58135,-4.21475 z"
         style="font-style:normal;font-variant:normal;font-weight:200;font-stretch:normal;font-size:18.68608093px;font-family:Kazesawa;-inkscape-font-specification:'Kazesawa Ultra-Light';fill:#161616;fill-opacity:1"
         id="path4182" />
      <path
         d="m 267.9427,187.46525 10.50573,0 0,-5.14906 -10.50573,0 0,5.14906 z m 11.41927,-5.93802 0,7.7651 -0.91354,0 0,-1.05888 -10.50573,0 0,1.05888 -0.91354,0 0,-7.7651 12.33281,0 z m -14.4298,-3.25969 q 4.23551,-2.32538 7.68205,-5.54353 l 1.16269,0 q 3.44655,3.21815 7.68206,5.54353 l -0.39449,0.76821 q -4.38084,-2.3669 -7.86891,-5.68887 -3.48807,3.3012 -7.86892,5.68887 l -0.39448,-0.76821 z m 3.11434,0.72668 0,-0.78896 10.29811,0 0,0.78896 -10.29811,0 z"
         style="font-style:normal;font-variant:normal;font-weight:200;font-stretch:normal;font-size:18.68608093px;font-family:Kazesawa;-inkscape-font-specification:'Kazesawa Ultra-Light';fill:#161616;fill-opacity:1"
         id="path4184" />
      <path
         d="m 294.80914,172.72401 0.45677,-0.68516 q 1.78555,0.87202 3.32197,1.91013 l -0.47754,0.6644 q -1.64022,-1.05888 -3.3012,-1.88937 z m -2.38767,-0.1661 0.89278,0 q 0,1.18345 0.0623,2.26309 l 6.29098,0 0,0.80973 -6.2287,0 q 0.35296,4.38085 1.72327,7.78587 1.82709,-2.57453 2.61606,-6.04184 l 0.85125,0.22839 q -0.85125,3.86179 -3.05206,6.74775 0.56058,1.16269 1.18345,2.05547 0.64363,0.87202 1.03812,1.24574 0.41524,0.37372 0.62287,0.37372 0.7682,0 1.18345,-3.82027 l 0.83049,0.22839 q -0.45677,4.63 -1.91013,4.63 -0.62287,0 -1.64022,-1.03812 -0.99659,-1.03812 -1.9309,-2.90672 -2.30462,2.61605 -5.41896,3.73721 l -0.41525,-0.74744 q 3.1974,-1.18345 5.41896,-3.86179 -1.59869,-3.73722 -1.99318,-8.61636 l -6.58165,0 0,2.51224 5.04524,0 q 0,4.94143 -0.22838,6.02107 -0.20763,0.99659 -0.85126,1.18345 -0.31143,0.0831 -0.99659,0.10381 -0.99659,0 -2.74062,-0.1661 l -0.0208,-0.80973 q 1.9309,0.1661 2.51224,0.1661 0.80973,0 1.01736,-0.22838 0.37372,-0.37372 0.41524,-2.40843 l 0.0208,-3.09359 -4.17322,0 0,0.70592 q 0,6.00031 -1.97242,9.46762 l -0.68516,-0.68516 q 1.7648,-3.28044 1.7648,-9.23923 l 0,-4.33932 7.43291,0 q -0.0831,-1.45336 -0.0831,-2.26309 z"
         style="font-style:normal;font-variant:normal;font-weight:200;font-stretch:normal;font-size:18.68608093px;font-family:Kazesawa;-inkscape-font-specification:'Kazesawa Ultra-Light';fill:#161616;fill-opacity:1"
         id="path4186" />
      <path
         d="m 302.78186,174.80024 13.6616,0 0,0.24914 q 0,6.04184 -2.86519,9.21847 -2.8652,3.17664 -8.88627,3.86179 l -0.14534,-0.85125 q 5.52277,-0.6644 8.15959,-3.44655 2.65757,-2.80291 2.78215,-8.15959 l -12.70654,0 0,-0.87201 z"
         style="font-style:normal;font-variant:normal;font-weight:200;font-stretch:normal;font-size:18.68608093px;font-family:Kazesawa;-inkscape-font-specification:'Kazesawa Ultra-Light';fill:#161616;fill-opacity:1"
         id="path4188" />
      <path
         d="m 319.05107,178.53745 7.72358,0 0,-2.40842 0.87202,0 0,2.40842 3.48807,0 0,0.78897 -3.48807,0 0,7.07995 q 0,1.05888 -0.3322,1.39107 -0.31143,0.3322 -1.37031,0.3322 -1.24574,0 -2.55376,-0.14533 l 0.0623,-0.80973 q 1.30803,0.14533 2.40843,0.16609 0.60211,0 0.74745,-0.16609 0.16609,-0.18687 0.16609,-0.76821 l 0,-6.10412 q -3.34273,3.73722 -7.28757,5.95878 l -0.41524,-0.70592 q 2.01394,-1.14192 3.98636,-2.76138 1.97242,-1.64023 3.52959,-3.46731 l -7.53672,0 0,-0.78897 z"
         style="font-style:normal;font-variant:normal;font-weight:200;font-stretch:normal;font-size:18.68608093px;font-family:Kazesawa;-inkscape-font-specification:'Kazesawa Ultra-Light';fill:#161616;fill-opacity:1"
         id="path4190" />
      <path
         d="m 333.73068,175.19472 0.43601,-0.80973 q 2.98978,1.55717 5.66811,3.25968 l -0.47753,0.80973 q -2.78215,-1.80632 -5.62659,-3.25968 z m 14.20143,1.03812 q -0.93431,5.27362 -4.38085,8.22187 -3.44655,2.94825 -9.25999,3.44655 l -0.12458,-0.87202 q 11.04555,-0.99659 12.87264,-10.98326 l 0.89278,0.18686 z"
         style="font-style:normal;font-variant:normal;font-weight:200;font-stretch:normal;font-size:18.68608093px;font-family:Kazesawa;-inkscape-font-specification:'Kazesawa Ultra-Light';fill:#161616;fill-opacity:1"
         id="path4192" />
      <path
         d="m 352.81983,173.5545 0,5.54354 q 5.02448,1.20421 10.58878,3.28044 l -0.31143,0.85126 q -5.41896,-2.03471 -10.27735,-3.1974 l 0,8.5956 -0.9343,0 0,-15.07344 0.9343,0 z"
         style="font-style:normal;font-variant:normal;font-weight:200;font-stretch:normal;font-size:18.68608093px;font-family:Kazesawa;-inkscape-font-specification:'Kazesawa Ultra-Light';fill:#161616;fill-opacity:1"
         id="path4194" />
    </g>
  </g>
</svg>
